<?xml version="1.0" encoding="UTF-8"?>
<svg id="SIGNATURE_CRETE_ET_LAURENT" data-name="SIGNATURE CRETE ET LAURENT" xmlns="http://www.w3.org/2000/svg" viewBox="0 0 15.45 15.46">
  <defs>
    <style>
      .cls-1 {
        fill: #2b8bcb;
      }
    </style>
  </defs>
  <g id="SITE">
    <g>
      <path class="cls-1" d="M0,8.22c0-.32,0-.64,0-.97,.02-.18,.04-.36,.07-.54C.36,4.65,1.32,2.96,2.95,1.67,4.72,.27,6.75-.24,8.98,.1c1.45,.22,2.73,.82,3.82,1.8,1.97,1.77,2.86,3.97,2.61,6.62-.04,.47-.41,.77-.87,.72-.42-.05-.72-.44-.66-.89,.09-.68,.03-1.35-.12-2.02-.02-.11-.06-.14-.18-.14-.89,0-1.78,0-2.67,0h-.14c0,.06,0,.09,0,.13,.02,.45,.04,.9,.06,1.36,0,.08,0,.17-.02,.25-.09,.37-.45,.61-.82,.57-.4-.05-.69-.35-.7-.76-.01-.36-.02-.71-.04-1.07,0-.16-.03-.32-.04-.47h-2.94c-.1,1.03-.11,2.05,0,3.08,.49,0,.96,0,1.43,0,.47,0,.81,.33,.82,.77,0,.44-.34,.77-.81,.78-.34,0-.67,0-1.01,0-.05,0-.11,0-.16,0,0,.03,0,.05,0,.06,.24,1.03,.59,2.02,1.15,2.93,.03,.05,.12,.09,.18,.09,.22,.01,.44,0,.66,0,.51,0,.88,.51,.72,1-.1,.3-.32,.45-.6,.54h-1.39c-.19-.02-.38-.04-.57-.07-1.54-.22-2.9-.84-4.06-1.87C1.28,12.33,.44,10.85,.12,9.08c-.05-.29-.08-.58-.12-.86Zm4.66-2.02s-.02,0-.04,0c-.92,0-1.84,0-2.76,0-.09,0-.12,.04-.14,.12-.23,.94-.23,1.88,0,2.82,.03,.12,.07,.15,.19,.15,.88,0,1.76,0,2.64,0,.05,0,.1,0,.12,0v-3.08Zm8.42-1.55c-.82-1.36-1.95-2.28-3.44-2.79,.01,.05,.02,.07,.02,.08,.38,.84,.65,1.71,.84,2.6,.02,.11,.08,.11,.16,.11,.54,0,1.08,0,1.61,0,.26,0,.51,0,.81,0Zm-10.7-.01c.05,0,.08,.01,.1,.01,.78,0,1.55,0,2.33,0,.1,0,.12-.05,.14-.13,.19-.66,.38-1.32,.58-1.98,.07-.22,.17-.43,.27-.68-1.49,.52-2.61,1.43-3.42,2.78Zm3.43,8.98c-.42-.92-.7-1.84-.89-2.78H2.39c.81,1.34,1.93,2.25,3.43,2.78Zm.7-8.98h2.42c-.25-1.08-.62-2.1-1.21-3.06-.59,.96-.96,1.98-1.21,3.06Z"/>
      <path class="cls-1" d="M14.87,12.12c0,.18-.09,.29-.25,.37-.41,.21-.83,.41-1.24,.62-.11,.06-.22,.17-.28,.28-.21,.39-.41,.8-.6,1.2-.08,.17-.19,.29-.39,.28-.2,0-.3-.12-.38-.29-.64-1.4-1.28-2.81-1.91-4.21-.09-.21-.08-.36,.05-.49,.13-.13,.28-.15,.48-.06,1.41,.64,2.83,1.28,4.24,1.93,.17,.08,.27,.19,.27,.37Z"/>
    </g>
  </g>
</svg>