<?xml version="1.0" encoding="UTF-8"?>
<svg id="SIGNATURE_CRETE_ET_LAURENT" data-name="SIGNATURE CRETE ET LAURENT" xmlns="http://www.w3.org/2000/svg" viewBox="0 0 15.45 15.45">
  <defs>
    <style>
      .cls-1 {
        letter-spacing: -.02em;
      }

      .cls-2 {
        fill: #2b8bcb;
      }

      .cls-3 {
        letter-spacing: -.01em;
      }

      .cls-4 {
        letter-spacing: .01em;
      }

      .cls-5 {
        letter-spacing: 0em;
      }

      .cls-6 {
        letter-spacing: 0em;
      }

      .cls-7 {
        font-family: Montserrat-Medium, Montserrat;
        font-size: 11.57px;
        font-weight: 500;
      }

      .cls-8 {
        letter-spacing: -.03em;
      }
    </style>
  </defs>
  <g id="SITE">
    <text class="cls-7" transform="translate(-149.7 10.82)"><tspan class="cls-6" x="0" y="0">ww</tspan><tspan class="cls-8" x="20.62" y="0">w</tspan><tspan class="cls-3" x="30.63" y="0">.</tspan><tspan x="33.12" y="0">c</tspan><tspan class="cls-3" x="39.73" y="0">r</tspan><tspan x="44.33" y="0">e</tspan><tspan class="cls-1" x="51.41" y="0">t</tspan><tspan class="cls-4" x="55.99" y="0">e</tspan><tspan x="63.19" y="0">-lau</tspan><tspan class="cls-3" x="85.6" y="0">r</tspan><tspan x="90.2" y="0">en</tspan><tspan class="cls-5" x="105.16" y="0">t</tspan><tspan class="cls-3" x="110.06" y="0">.</tspan><tspan class="cls-6" x="112.55" y="0">c</tspan><tspan x="119.06" y="0">om</tspan></text>
  </g>
  <g id="LINKEDIN">
    <path class="cls-2" d="M7.82,15.45h-.18c-.06-.01-.13-.03-.19-.03-.33-.03-.67-.05-1-.1-1.51-.25-2.83-.89-3.94-1.94C.95,11.92,.11,10.12,.03,7.98,.03,7.92,.01,7.86,0,7.81c0-.06,0-.12,0-.18,.01-.08,.03-.16,.03-.24,.05-.4,.06-.8,.14-1.19,.35-1.7,1.17-3.15,2.49-4.29C4.58,.27,6.8-.31,9.26,.16c1.97,.38,3.55,1.42,4.73,3.05,1.3,1.81,1.73,3.84,1.31,6.02-.35,1.8-1.25,3.29-2.67,4.45-1.34,1.1-2.88,1.69-4.62,1.74-.06,0-.12,.02-.18,.03Zm4.53-3.92s.01-.07,.01-.1c0-1.21,0-2.43-.04-3.64-.01-.51-.21-.97-.56-1.35-.42-.46-.97-.63-1.58-.62-.46,0-.88,.13-1.24,.44-.13,.11-.24,.25-.37,.39,0-.19,0-.36,0-.53,0-.12-.04-.17-.16-.17-.52,0-1.05,0-1.57,0-.12,0-.16,.03-.16,.16,0,1.76,0,3.51,0,5.27,0,.14,.05,.17,.17,.17,.5,0,1.01,0,1.51,0,.21,0,.21,0,.21-.21,0-1.01,0-2.02,0-3.04,0-.31,.13-.56,.35-.75,.39-.35,1.03-.3,1.32,.1,.15,.21,.21,.45,.21,.7,0,1.01,0,2.01,0,3.02,0,.14,.04,.19,.19,.19,.51,0,1.02,0,1.53,0,.05,0,.11-.01,.16-.02ZM3.82,8.73c0,.89,0,1.77,0,2.66,0,.13,.04,.17,.16,.17,.52,0,1.04,0,1.56,0,.14,0,.18-.05,.18-.19,0-1.74,0-3.48,0-5.22,0-.16-.05-.19-.2-.19-.5,0-1.01,0-1.51,0-.14,0-.19,.03-.19,.18,0,.87,0,1.73,0,2.6Zm.93-3.51c.42,0,.76-.17,.93-.47,.19-.34,.18-.68-.01-1.02-.22-.38-.74-.55-1.24-.42-.4,.1-.8,.5-.71,1.09,.08,.5,.47,.82,1.03,.82Z"/>
  </g>
</svg>