<?xml version="1.0" encoding="UTF-8"?>
<svg id="SIGNATURE_CRETE_ET_LAURENT" data-name="SIGNATURE CRETE ET LAURENT" xmlns="http://www.w3.org/2000/svg" viewBox="0 0 16.32 16.31">
  <defs>
    <style>
      .cls-1 {
        fill: #2b8bcb;
      }
    </style>
  </defs>
  <g id="TEL">
    <g>
      <path class="cls-1" d="M0,4.45c.02-.12,.04-.24,.07-.35,.08-.32,.23-.62,.47-.85,.43-.43,.85-.86,1.29-1.28,.36-.35,.78-.52,1.27-.32,.17,.07,.34,.18,.47,.32,.65,.63,1.28,1.27,1.92,1.92,.28,.29,.46,.62,.4,1.04-.05,.31-.23,.56-.44,.77-.36,.36-.72,.72-1.08,1.08-.19,.19-.19,.24-.08,.48,.41,.92,1.04,1.69,1.72,2.42,.67,.73,1.41,1.38,2.26,1.91,.29,.18,.6,.32,.89,.49,.14,.07,.24,.02,.34-.08,.37-.38,.74-.76,1.13-1.13,.15-.14,.33-.28,.51-.37,.38-.18,.76-.1,1.09,.15,.09,.06,.16,.13,.24,.21,.61,.61,1.22,1.21,1.82,1.83,.15,.15,.28,.32,.37,.51,.19,.4,.11,.81-.18,1.13-.47,.52-.97,1.01-1.47,1.5-.28,.27-.63,.4-1.01,.47-.05,0-.09,.02-.14,.03h-.61s-.07-.02-.11-.03c-.46-.1-.92-.15-1.37-.29-1.31-.42-2.5-1.09-3.62-1.88-2.03-1.43-3.65-3.24-4.88-5.4-.46-.81-.84-1.67-1.09-2.57-.09-.33-.14-.66-.21-.99,0-.23,0-.47,0-.7Z"/>
      <path class="cls-1" d="M16.32,7.65c-.42,.07-.82,.14-1.25,.21-.31-1.72-1.08-3.2-2.34-4.41-1.25-1.21-2.74-1.94-4.49-2.2,.06-.42,.12-.83,.17-1.25,3.47,.41,7.11,3.19,7.9,7.65Z"/>
      <path class="cls-1" d="M13.01,7.86c-.41,.07-.81,.14-1.22,.21-.46-1.98-1.68-3.17-3.7-3.58,.06-.4,.11-.81,.17-1.22,2.24,.23,4.37,2.14,4.75,4.6Z"/>
    </g>
  </g>
</svg>