<?xml version="1.0" encoding="UTF-8"?>
<svg id="SIGNATURE_CRETE_ET_LAURENT" data-name="SIGNATURE CRETE ET LAURENT" xmlns="http://www.w3.org/2000/svg" viewBox="0 0 13.53 19.33">
  <defs>
    <style>
      .cls-1 {
        fill: #2b8bcb;
      }
    </style>
  </defs>
  <g id="ADRESSE">
    <path class="cls-1" d="M6.77,19.33c-.49-.68-.97-1.33-1.43-1.99-1.43-2.04-2.81-4.11-3.92-6.35-.42-.85-.79-1.73-1.1-2.62C-.25,6.8-.02,5.25,.7,3.77,1.96,1.17,4.71-.3,7.58,.05c3.06,.37,5.43,2.67,5.89,5.71,.17,1.11-.02,2.16-.42,3.19-.66,1.74-1.57,3.36-2.55,4.94-1.11,1.81-2.32,3.55-3.59,5.25-.04,.05-.08,.11-.15,.2Zm0-15.47c-1.64,0-2.89,1.26-2.89,2.9,0,1.64,1.26,2.9,2.89,2.9,1.65,0,2.91-1.26,2.9-2.91,0-1.64-1.26-2.89-2.9-2.89Z"/>
  </g>
</svg>