<?xml version="1.0" encoding="UTF-8"?>
<svg id="SIGNATURE_CRETE_ET_LAURENT" data-name="SIGNATURE CRETE ET LAURENT" xmlns="http://www.w3.org/2000/svg" viewBox="0 0 136.12 56.68">
  <defs>
    <style>
      .cls-1 {
        fill: #000809;
      }

      .cls-2 {
        fill: #0a120f;
      }

      .cls-3 {
        fill: #2b8bcb;
      }
    </style>
  </defs>
  <g id="LOGO_CRETE_LAURENT" data-name="LOGO CRETE&amp;amp;LAURENT">
    <rect class="cls-3" x="21.06" width="23.12" height="23.72"/>
    <polygon class="cls-2" points="44.17 32.61 45.87 32.61 45.87 43 52.29 43 52.29 44.47 44.17 44.47 44.17 32.61"/>
    <path class="cls-2" d="M65.09,41.51h-6.3l-1.3,2.97h-1.75l5.37-11.86h1.68l5.39,11.86h-1.78l-1.31-2.97Zm-.59-1.36l-2.56-5.81-2.56,5.81h5.12Z"/>
    <path class="cls-2" d="M0,11.86V44.47H32.61V11.86H0Zm31.14,31.14H1.47V13.33H31.14v29.66Z"/>
    <path class="cls-2" d="M72.12,43.19c-.88-.9-1.31-2.19-1.31-3.87v-6.71h1.68v6.64c0,2.53,1.11,3.79,3.32,3.79,1.08,0,1.9-.31,2.48-.94,.57-.62,.86-1.58,.86-2.86v-6.64h1.64v6.71c0,1.7-.44,2.99-1.32,3.88-.88,.89-2.1,1.34-3.67,1.34s-2.8-.45-3.67-1.35"/>
    <path class="cls-2" d="M93.12,44.47l-2.56-3.64c-.32,.02-.56,.03-.74,.03h-2.93v3.61h-1.69v-11.86h4.63c1.54,0,2.74,.37,3.63,1.1,.88,.73,1.32,1.75,1.32,3.03,0,.92-.22,1.7-.68,2.34-.45,.64-1.1,1.11-1.93,1.41l2.81,3.98h-1.85Zm-.9-5.75c.56-.46,.85-1.12,.85-1.98s-.28-1.52-.85-1.97c-.57-.46-1.38-.68-2.46-.68h-2.88v5.34h2.88c1.07,0,1.89-.23,2.46-.7"/>
    <polygon class="cls-2" points="108.02 43 108.02 44.47 99.41 44.47 99.41 32.61 107.78 32.61 107.78 34.08 101.1 34.08 101.1 37.73 107.05 37.73 107.05 39.17 101.1 39.17 101.1 43 108.02 43"/>
    <polygon class="cls-2" points="122.66 32.61 122.66 44.47 121.27 44.47 114.15 35.63 114.15 44.47 112.46 44.47 112.46 32.61 113.85 32.61 120.97 41.46 120.97 32.61 122.66 32.61"/>
    <polygon class="cls-2" points="130.29 34.08 126.22 34.08 126.22 32.61 136.03 32.61 136.03 34.08 131.97 34.08 131.97 44.47 130.29 44.47 130.29 34.08"/>
    <path class="cls-1" d="M3.42,56.64l-1.17-1.65c-.17,.02-.33,.04-.48,.04H.36v1.61h-.36v-4.92H1.76c.62,0,1.11,.15,1.46,.44,.35,.29,.53,.7,.53,1.22,0,.39-.1,.72-.3,.98-.2,.27-.48,.45-.85,.56l1.23,1.72h-.41Zm-1.65-1.93c.53,0,.93-.12,1.2-.35,.28-.23,.41-.56,.41-.99s-.14-.76-.41-.99c-.28-.23-.68-.35-1.2-.35H.36v2.67H1.76Z"/>
    <path class="cls-2" d="M10.18,56.32v.32h-3.4v-4.92h3.29v.32h-2.93v1.94h2.62v.32h-2.62v2.02h3.04Zm-1.17-5.83h.51l-1.1,.83h-.38l.98-.83Z"/>
    <polygon class="cls-2" points="16.93 51.72 16.93 56.64 16.64 56.64 13.28 52.37 13.28 56.64 12.92 56.64 12.92 51.72 13.22 51.72 16.57 56 16.57 51.72 16.93 51.72"/>
    <path class="cls-2" d="M20.9,56.35c-.39-.22-.69-.52-.92-.9-.22-.38-.33-.8-.33-1.27s.11-.89,.33-1.27c.22-.38,.53-.68,.92-.9,.39-.22,.83-.33,1.31-.33s.92,.11,1.31,.32c.39,.22,.7,.51,.92,.89,.22,.38,.33,.81,.33,1.28s-.11,.9-.33,1.28c-.22,.38-.53,.68-.92,.89-.39,.21-.82,.32-1.31,.32s-.92-.11-1.31-.33m2.43-.29c.33-.19,.6-.45,.79-.78,.19-.33,.29-.7,.29-1.11s-.1-.78-.29-1.11c-.19-.33-.45-.59-.79-.78-.33-.19-.71-.28-1.12-.28s-.79,.1-1.12,.28c-.34,.19-.6,.45-.79,.78-.19,.33-.29,.7-.29,1.11s.1,.78,.29,1.11c.19,.33,.46,.59,.79,.78,.34,.19,.71,.28,1.12,.28s.79-.09,1.12-.28"/>
    <polygon class="cls-2" points="31.28 51.72 29.08 56.64 28.72 56.64 26.53 51.72 26.92 51.72 28.91 56.18 30.9 51.72 31.28 51.72"/>
    <path class="cls-2" d="M36.32,55.26h-2.86l-.63,1.39h-.39l2.27-4.92h.36l2.26,4.92h-.39l-.63-1.39Zm-.13-.3l-1.29-2.84-1.29,2.84h2.58Z"/>
    <polygon class="cls-2" points="40.36 52.04 38.59 52.04 38.59 51.72 42.49 51.72 42.49 52.04 40.72 52.04 40.72 56.64 40.36 56.64 40.36 52.04"/>
    <rect class="cls-2" x="45.38" y="51.72" width=".36" height="4.92"/>
    <path class="cls-2" d="M49.95,56.35c-.39-.22-.7-.52-.92-.9-.22-.38-.33-.8-.33-1.27s.11-.89,.33-1.27c.22-.38,.53-.68,.92-.9,.39-.22,.83-.33,1.31-.33s.92,.11,1.31,.32c.39,.22,.7,.51,.92,.89,.22,.38,.34,.81,.34,1.28s-.11,.9-.34,1.28c-.22,.38-.53,.68-.92,.89-.39,.21-.83,.32-1.31,.32s-.92-.11-1.31-.33m2.43-.29c.33-.19,.6-.45,.79-.78,.19-.33,.29-.7,.29-1.11s-.1-.78-.29-1.11c-.19-.33-.45-.59-.79-.78-.33-.19-.71-.28-1.12-.28s-.79,.1-1.12,.28c-.34,.19-.6,.45-.79,.78-.19,.33-.29,.7-.29,1.11s.1,.78,.29,1.11c.19,.33,.46,.59,.79,.78,.34,.19,.71,.28,1.12,.28s.79-.09,1.12-.28"/>
    <polygon class="cls-2" points="60.8 51.72 60.8 56.64 60.5 56.64 57.15 52.37 57.15 56.64 56.79 56.64 56.79 51.72 57.09 51.72 60.44 56 60.44 51.72 60.8 51.72"/>
    <path class="cls-2" d="M73.25,51.72h1.95c.51,0,.97,.1,1.36,.32,.4,.21,.7,.5,.93,.88,.22,.37,.33,.8,.33,1.27s-.11,.9-.33,1.27c-.22,.37-.53,.66-.93,.87-.4,.21-.85,.32-1.36,.32h-1.95v-4.92Zm1.92,4.6c.45,0,.86-.09,1.2-.27,.35-.18,.61-.43,.8-.76,.19-.32,.28-.69,.28-1.11s-.09-.79-.28-1.11c-.19-.32-.46-.58-.8-.76-.35-.18-.75-.27-1.2-.27h-1.56v4.28h1.56Z"/>
    <path class="cls-2" d="M84.17,56.32v.32h-3.4v-4.92h3.29v.32h-2.93v1.94h2.62v.32h-2.62v2.02h3.04Zm-1.17-5.83h.51l-1.1,.83h-.38l.98-.83Z"/>
    <path class="cls-2" d="M87.95,56.36c-.39-.22-.69-.51-.91-.89-.22-.38-.33-.81-.33-1.28s.11-.9,.33-1.28c.22-.38,.53-.68,.91-.89,.39-.22,.82-.32,1.3-.32,.36,0,.68,.06,.99,.17,.3,.12,.56,.29,.77,.51l-.22,.23c-.39-.39-.9-.58-1.51-.58-.41,0-.79,.1-1.13,.28-.34,.19-.6,.45-.8,.78-.19,.33-.29,.7-.29,1.11s.1,.78,.29,1.11c.19,.33,.46,.59,.8,.78,.34,.19,.71,.28,1.13,.28,.61,0,1.11-.2,1.51-.59l.22,.23c-.21,.22-.47,.4-.77,.51-.3,.12-.63,.18-.98,.18-.48,0-.92-.11-1.3-.32"/>
    <path class="cls-2" d="M94.32,56.35c-.39-.22-.69-.52-.92-.9-.22-.38-.33-.8-.33-1.27s.11-.89,.33-1.27c.22-.38,.53-.68,.92-.9,.39-.22,.83-.33,1.31-.33s.92,.11,1.31,.32c.39,.22,.69,.51,.92,.89,.22,.38,.33,.81,.33,1.28s-.11,.9-.33,1.28c-.22,.38-.53,.68-.92,.89-.39,.21-.83,.32-1.31,.32s-.92-.11-1.31-.33m2.43-.29c.33-.19,.6-.45,.79-.78,.19-.33,.29-.7,.29-1.11s-.1-.78-.29-1.11c-.19-.33-.45-.59-.79-.78-.33-.19-.71-.28-1.12-.28s-.79,.1-1.12,.28c-.34,.19-.6,.45-.79,.78-.19,.33-.29,.7-.29,1.11s.1,.78,.29,1.11c.19,.33,.46,.59,.79,.78,.33,.19,.71,.28,1.12,.28s.79-.09,1.12-.28"/>
    <path class="cls-2" d="M104.57,56.64l-1.17-1.65c-.17,.02-.33,.04-.48,.04h-1.41v1.61h-.36v-4.92h1.77c.62,0,1.11,.15,1.46,.44,.35,.29,.53,.7,.53,1.22,0,.39-.1,.72-.3,.98-.2,.27-.48,.45-.85,.56l1.23,1.72h-.41Zm-1.65-1.93c.53,0,.93-.12,1.2-.35,.28-.23,.42-.56,.42-.99s-.14-.76-.42-.99c-.28-.23-.68-.35-1.2-.35h-1.41v2.67h1.41Z"/>
    <path class="cls-2" d="M111.84,55.26h-2.86l-.63,1.39h-.39l2.26-4.92h.36l2.27,4.92h-.39l-.63-1.39Zm-.13-.3l-1.29-2.84-1.29,2.84h2.58Z"/>
    <polygon class="cls-2" points="115.59 52.04 113.82 52.04 113.82 51.72 117.72 51.72 117.72 52.04 115.95 52.04 115.95 56.64 115.59 56.64 115.59 52.04"/>
    <rect class="cls-2" x="120.62" y="51.72" width=".36" height="4.92"/>
    <path class="cls-2" d="M125.19,56.35c-.39-.22-.7-.52-.92-.9-.22-.38-.33-.8-.33-1.27s.11-.89,.33-1.27c.22-.38,.53-.68,.92-.9,.39-.22,.83-.33,1.31-.33s.92,.11,1.31,.32c.39,.22,.69,.51,.92,.89,.22,.38,.33,.81,.33,1.28s-.11,.9-.33,1.28c-.22,.38-.53,.68-.92,.89-.39,.21-.83,.32-1.31,.32s-.92-.11-1.31-.33m2.43-.29c.33-.19,.6-.45,.79-.78,.19-.33,.29-.7,.29-1.11s-.09-.78-.29-1.11c-.19-.33-.45-.59-.79-.78-.33-.19-.7-.28-1.12-.28s-.79,.1-1.12,.28c-.34,.19-.6,.45-.79,.78-.19,.33-.29,.7-.29,1.11s.1,.78,.29,1.11c.19,.33,.46,.59,.79,.78,.34,.19,.71,.28,1.12,.28s.79-.09,1.12-.28"/>
    <polygon class="cls-2" points="136.03 51.72 136.03 56.64 135.74 56.64 132.38 52.37 132.38 56.64 132.02 56.64 132.02 51.72 132.33 51.72 135.67 56 135.67 51.72 136.03 51.72"/>
    <rect class="cls-2" x="66.07" y="54.02" width="1.9" height=".33"/>
    <path class="cls-2" d="M78.77,23.72l-2.56-3.64c-.32,.02-.56,.03-.75,.03h-2.93v3.61h-1.69V11.86h4.63c1.54,0,2.75,.37,3.63,1.1,.88,.74,1.32,1.75,1.32,3.03,0,.91-.23,1.69-.68,2.34-.45,.64-1.1,1.11-1.93,1.41l2.81,3.98h-1.85Zm-.9-5.75c.57-.46,.85-1.12,.85-1.98s-.28-1.52-.85-1.98c-.56-.46-1.38-.68-2.46-.68h-2.88v5.34h2.88c1.07,0,1.89-.23,2.46-.7"/>
    <path class="cls-2" d="M93.8,22.24v1.47h-8.61V11.86h8.37v1.47h-6.68v3.64h5.95v1.44h-5.95v3.83h6.91Zm-3.37-13.56h2.07l-2.85,2.2h-1.52l2.3-2.2Z"/>
    <polygon class="cls-2" points="101.43 13.33 97.36 13.33 97.36 11.85 107.18 11.85 107.18 13.33 103.11 13.33 103.11 23.72 101.43 23.72 101.43 13.33"/>
    <path class="cls-2" d="M119.35,22.24v1.47h-8.61V11.86h8.37v1.47h-6.68v3.64h5.95v1.44h-5.95v3.83h6.91Zm-3.37-13.56h2.07l-2.85,2.2h-1.53l2.31-2.2Z"/>
    <path class="cls-2" d="M58.69,23.01c-.94-.52-1.69-1.24-2.22-2.15-.53-.91-.8-1.94-.8-3.08s.27-2.16,.8-3.08c.54-.91,1.28-1.63,2.23-2.15,.95-.52,2.01-.78,3.19-.78,.92,0,1.76,.15,2.52,.46,.76,.31,1.41,.76,1.95,1.37l-1.09,1.06c-.88-.93-1.99-1.39-3.3-1.39-.87,0-1.66,.19-2.37,.59-.7,.39-1.25,.93-1.65,1.62-.4,.69-.6,1.46-.6,2.31s.2,1.62,.6,2.31c.4,.69,.95,1.23,1.65,1.62,.7,.39,1.49,.59,2.37,.59,1.31,0,2.41-.47,3.3-1.41l1.09,1.06c-.54,.6-1.19,1.06-1.95,1.38-.77,.31-1.61,.47-2.53,.47-1.17,0-2.23-.26-3.18-.78"/>
    <path class="cls-2" d="M135.22,23.81l-1.57-1.57c-1.04,1.01-2.36,1.52-3.94,1.52-.79,0-1.49-.13-2.12-.39-.63-.26-1.12-.62-1.47-1.09-.35-.47-.53-1-.53-1.59,0-.72,.22-1.36,.67-1.91,.44-.56,1.17-1.13,2.2-1.71-.52-.52-.88-.98-1.09-1.4-.21-.41-.32-.85-.32-1.3,0-.8,.29-1.44,.87-1.92,.58-.48,1.35-.72,2.32-.72,.9,0,1.61,.22,2.14,.66,.53,.44,.79,1.04,.79,1.8,0,.59-.19,1.13-.58,1.6-.39,.47-1.03,.97-1.93,1.48l2.91,2.9c.34-.64,.58-1.35,.72-2.14l1.3,.42c-.2,1.03-.54,1.93-1.03,2.69l1.59,1.58-.91,1.08Zm-2.53-2.51l-3.35-3.33c-.81,.45-1.37,.87-1.69,1.26-.32,.39-.48,.82-.48,1.3,0,.56,.24,1.02,.73,1.36,.49,.35,1.13,.52,1.91,.52,1.17,0,2.13-.37,2.88-1.11m-3.71-7.99c-.3,.26-.45,.61-.45,1.03,0,.3,.08,.6,.25,.88,.16,.28,.48,.66,.95,1.14,.78-.44,1.31-.81,1.61-1.13,.3-.32,.45-.66,.45-1.03,0-.39-.14-.71-.41-.94-.27-.24-.66-.35-1.15-.35-.53,0-.94,.13-1.24,.4"/>
  </g>
</svg>