<?xml version="1.0" encoding="UTF-8"?>
<svg xmlns="http://www.w3.org/2000/svg" xmlns:xlink="http://www.w3.org/1999/xlink" viewBox="0 0 38.14 39.93">
  <defs>
    <style>
      .cls-1 {
        fill: none;
      }

      .cls-2 {
        clip-path: url(#clippath);
      }

      .cls-3 {
        fill: #007bca;
      }

      .cls-4 {
        fill: #fff;
      }

      .cls-5 {
        fill: #6ac7f4;
      }

      .cls-6 {
        fill: #021a30;
      }

      .cls-7 {
        clip-path: url(#clippath-1);
      }
    </style>
    <clipPath id="clippath">
      <rect class="cls-1" width="38.14" height="39.93"/>
    </clipPath>
    <clipPath id="clippath-1">
      <rect class="cls-1" width="38.14" height="39.93"/>
    </clipPath>
    <clipPath id="clippath-2">
      <rect id="SVGID-2" data-name="SVGID" class="cls-6" x="88.14" y="57.61" width="600" height="207"/>
    </clipPath>
  </defs>
  <g id="SIGNATURE_CRETE_ET_LAURENT" data-name="SIGNATURE CRETE ET LAURENT">
    <g id="QUALIBAT">
      <g>
        <g class="cls-2">
          <g>
            <path class="cls-3" d="M1.38,0H36.76c.76,0,1.38,.62,1.39,1.38,0,0,0,0,0,0V38.55c0,.76-.62,1.38-1.38,1.38H1.38C.62,39.93,0,39.31,0,38.55h0V1.38C0,.62,.62,0,1.38,0h0Z"/>
            <path class="cls-5" d="M18.69,3.58V25.74l14.66-4.8L18.69,3.58Z"/>
            <path class="cls-4" d="M18.69,3.58V25.74l-13.89-5.06L18.69,3.58Z"/>
          </g>
        </g>
        <path class="cls-4" d="M4.8,20.68l13.89,5.06V3.58L4.8,20.68Z"/>
        <g class="cls-7">
          <g>
            <path class="cls-4" d="M3.09,37.55l-.71-1.99h.16l.67,1.89,.66-1.89h.16c-.23,.65-.47,1.34-.7,1.99h-.23Z"/>
            <path class="cls-4" d="M5.05,37.57c-.41,.02-.77-.3-.79-.71-.02-.41,.3-.77,.71-.79,.41-.02,.77,.3,.79,.71,0,.01,0,.03,0,.04,.01,.4-.3,.74-.71,.75,0,0,0,0,0,0m0-.13c.32-.01,.58-.28,.57-.6,0,0,0-.01,0-.02,0-.31-.25-.56-.56-.56s-.56,.25-.56,.56h0c-.02,.32,.22,.6,.55,.62,0,0,.01,0,.02,0"/>
            <path class="cls-4" d="M6.9,37.54c-.21,.03-.4-.11-.43-.31,0-.03,0-.06,0-.09v-.92h-.21v-.12h.21v-.35l.14-.03v.38h.29v.12h-.29v.92c0,.14,.1,.26,.24,.27,.02,0,.03,0,.05,0v.13Z"/>
            <path class="cls-4" d="M7.7,36.1l.02,.19c.16-.21,.44-.27,.67-.15l-.06,.12c-.2-.11-.44-.04-.56,.15-.04,.06-.05,.13-.05,.2v.92h-.14v-1.43h.12Z"/>
            <path class="cls-4" d="M9.94,37.23l.11,.08c-.13,.16-.33,.25-.54,.25-.39,0-.7-.33-.69-.72,0-.01,0-.02,0-.03-.02-.38,.27-.7,.65-.72,.01,0,.02,0,.03,0,.36,0,.66,.29,.66,.65,0,.01,0,.02,0,.04,0,.03,0,.06,0,.09h-1.21c0,.3,.25,.55,.56,.55,.17,0,.32-.06,.43-.19m.1-.49c0-.29-.24-.52-.53-.52,0,0,0,0,0,0-.29,0-.54,.23-.55,.52h1.09Z"/>
            <path class="cls-4" d="M12.09,37.53c-.24,.01-.38-.12-.38-.4v-1.58h.15v1.58c0,.17,.05,.27,.23,.27v.13Z"/>
            <path class="cls-4" d="M13.72,37.53l-.03-.15c-.12,.11-.27,.18-.43,.18-.41,0-.61-.22-.61-.49,0-.25,.22-.47,.64-.48,.15,0,.29,.04,.41,.12v-.12c0-.31-.22-.38-.45-.38-.15,0-.29,.04-.41,.13l-.06-.1c.14-.1,.31-.16,.49-.16,.3,0,.58,.13,.58,.52v.94h-.11Zm-.03-.69c-.12-.07-.27-.11-.41-.11-.33,0-.49,.15-.49,.35s.15,.35,.47,.35c.17,0,.32-.07,.44-.19v-.39Z"/>
            <path class="cls-4" d="M15.78,36.83c.03,.37-.25,.69-.61,.72-.01,0-.03,0-.04,0-.15,.01-.29-.05-.39-.17l-.02,.15h-.12v-1.98h.15v.68c.1-.09,.23-.14,.36-.14,.37,0,.68,.3,.68,.68,0,.02,0,.04,0,.05m-.14,0c.03-.3-.19-.58-.5-.61,0,0,0,0,0,0-.15-.01-.3,.05-.4,.16v.83c.08,.12,.21,.2,.36,.2,.31,0,.55-.26,.54-.57,0,0,0-.01,0-.02"/>
            <path class="cls-4" d="M17.51,37.23l.11,.08c-.13,.16-.33,.25-.54,.25-.39,0-.7-.33-.69-.72,0-.01,0-.02,0-.03-.02-.38,.27-.7,.65-.72,.01,0,.02,0,.03,0,.36,0,.66,.29,.66,.65,0,.01,0,.02,0,.04,0,.03,0,.06,0,.09h-1.21c0,.3,.25,.55,.56,.55,.17,0,.32-.06,.43-.19m.1-.49c0-.29-.24-.52-.53-.52,0,0,0,0,0,0-.29,0-.54,.23-.55,.52h1.09Z"/>
            <path class="cls-4" d="M18.79,37.53c-.24,.01-.38-.12-.38-.4v-1.58h.15v1.58c0,.17,.05,.27,.23,.27v.13Z"/>
            <path class="cls-4" d="M21.26,36.24v-.68h.15v1.98h-.12l-.02-.15c-.1,.12-.24,.18-.39,.17-.88-.01-.87-1.45,.02-1.45,.14,0,.27,.05,.36,.14m0,.98v-.83c-.1-.11-.25-.17-.4-.16-.33,.05-.55,.36-.5,.69,.04,.27,.26,.47,.53,.5,.15,0,.28-.07,.36-.2"/>
            <path class="cls-4" d="M23.23,37.23l.11,.08c-.13,.16-.33,.25-.54,.25-.39,0-.7-.33-.69-.71,0-.01,0-.02,0-.03-.02-.38,.27-.7,.65-.72,.01,0,.02,0,.03,0,.36,0,.66,.29,.66,.65,0,.01,0,.02,0,.04,0,.03,0,.06,0,.09h-1.21c0,.3,.25,.55,.56,.55,.17,0,.32-.06,.43-.19m.1-.49c0-.29-.24-.52-.53-.52,0,0,0,0,0,0-.29,0-.54,.23-.55,.52h1.09Z"/>
            <path class="cls-4" d="M25.8,37.53v-1.3h-.61v1.3h-.15v-1.3h-.14v-.13h.14v-.15c-.01-.21,.14-.39,.35-.41,.03,0,.06,0,.09,0v.12c-.22,0-.29,.1-.29,.28v.15h.76v1.43h-.15Zm.15-1.76h-.16v-.22h.16v.22Z"/>
            <path class="cls-4" d="M27.7,37.53l-.03-.15c-.12,.11-.27,.18-.43,.18-.42,0-.61-.22-.61-.49,0-.25,.22-.47,.64-.48,.15,0,.29,.04,.41,.12v-.12c0-.31-.22-.38-.45-.38-.15,0-.29,.04-.41,.13l-.06-.1c.14-.1,.31-.16,.49-.16,.3,0,.59,.13,.59,.52v.94h-.11Zm-.03-.69c-.12-.07-.27-.11-.41-.11-.33,0-.49,.15-.49,.35s.15,.35,.47,.35c.17,0,.32-.07,.44-.19v-.39Z"/>
            <path class="cls-4" d="M29.77,36.83c.03,.37-.25,.69-.61,.72-.01,0-.03,0-.04,0-.15,.01-.29-.05-.39-.17l-.02,.15h-.12v-1.98h.15v.68c.1-.09,.23-.14,.36-.14,.37,0,.68,.3,.68,.68,0,.02,0,.04,0,.06m-.14,0c.03-.3-.19-.58-.5-.61,0,0,0,0,0,0-.15-.01-.3,.05-.4,.16v.83c.08,.12,.21,.2,.36,.2,.31,0,.55-.26,.54-.57,0,0,0-.01,0-.02"/>
            <path class="cls-4" d="M30.62,35.77h-.15v-.22h.15v.22Zm-.15,.32h.15v1.43h-.15v-1.43Z"/>
            <path class="cls-4" d="M31.77,37.53c-.24,.01-.38-.12-.38-.4v-1.58h.15v1.58c0,.17,.05,.27,.23,.27v.13Z"/>
            <path class="cls-4" d="M32.58,35.77h-.15v-.22h.15v.22Zm-.15,.32h.15v1.43h-.15v-1.43Z"/>
            <path class="cls-4" d="M33.83,37.54c-.21,.03-.4-.11-.43-.31,0-.03,0-.06,0-.09v-.92h-.21v-.12h.21v-.35l.14-.03v.38h.29v.12h-.29v.92c0,.14,.1,.26,.24,.27,.02,0,.03,0,.05,0v.13Z"/>
            <path class="cls-4" d="M35.1,37.41c.17,0,.32-.06,.43-.19l.11,.08c-.13,.16-.33,.25-.54,.25-.39,0-.7-.33-.69-.71,0-.01,0-.02,0-.03-.02-.38,.27-.7,.65-.72,.01,0,.02,0,.03,0,.36,0,.66,.29,.66,.65,0,.01,0,.03,0,.04,0,.03,0,.06,0,.09h-1.21c0,.3,.25,.55,.56,.55m.53-.68c0-.29-.24-.52-.53-.52,0,0,0,0,0,0-.3,0-.54,.23-.55,.52h1.09Zm-.3-1.16h-.17l-.17,.29h.13l.21-.29Z"/>
            <path class="cls-4" d="M5.96,33.2c-.36,.19-.76,.29-1.17,.28-.34,0-.68-.06-1-.19-.28-.12-.54-.3-.75-.53-.21-.23-.36-.5-.47-.79-.11-.32-.16-.65-.16-.98,0-.34,.05-.68,.16-1,.1-.3,.26-.57,.47-.81,.21-.23,.46-.42,.75-.54,.32-.13,.66-.2,1-.2,.34,0,.68,.06,1,.2,.28,.12,.54,.31,.74,.54,.21,.24,.36,.51,.46,.81,.11,.32,.17,.66,.16,1,0,.33-.05,.66-.16,.98-.1,.29-.26,.56-.47,.8l.6,.55-.49,.51-.68-.61Zm-.16-1.11c.1-.14,.17-.29,.22-.45,.06-.21,.09-.43,.08-.65,0-.21-.02-.41-.07-.62-.04-.19-.12-.37-.23-.53-.1-.15-.24-.28-.41-.37-.19-.1-.4-.14-.61-.14-.21,0-.42,.04-.61,.14-.16,.09-.3,.22-.41,.37-.11,.16-.18,.34-.23,.53-.05,.2-.07,.41-.07,.61,0,.2,.02,.4,.07,.59,.04,.18,.12,.36,.23,.52,.1,.15,.24,.28,.41,.37,.19,.1,.4,.15,.61,.14,.09,0,.17,0,.26-.01,.06,0,.12-.02,.17-.05l-.45-.41,.49-.53,.55,.5Z"/>
            <path class="cls-4" d="M11.43,33c-.43,.34-.97,.51-1.51,.48-.55,.03-1.09-.13-1.52-.47-.38-.38-.58-.92-.54-1.46v-3h1.06v3c0,.13,.01,.26,.03,.38,.02,.12,.07,.24,.14,.33,.08,.1,.18,.18,.3,.24,.16,.07,.34,.1,.52,.09,.28,.03,.57-.06,.78-.25,.16-.23,.24-.51,.22-.79v-3h1.06v3c.04,.54-.16,1.08-.55,1.46"/>
            <path class="cls-4" d="M18.7,28.55v3.93h1.98v.89h-3.04v-4.82h1.06Z"/>
            <path class="cls-4" d="M21.46,28.55h1.06v4.82h-1.06v-4.82Z"/>
            <path class="cls-4" d="M25.66,28.55c.21,0,.42,.02,.63,.06,.17,.03,.34,.1,.49,.2,.14,.09,.24,.22,.31,.37,.08,.18,.12,.37,.11,.57,0,.21-.05,.43-.16,.61-.13,.17-.29,.31-.49,.4,.27,.07,.5,.22,.67,.45,.26,.42,.29,.95,.08,1.41-.09,.17-.22,.32-.38,.43-.17,.12-.35,.2-.55,.25-.21,.05-.42,.08-.63,.08h-2.21v-4.82h2.15Zm-.13,1.95c.17,0,.33-.04,.47-.13,.13-.11,.2-.27,.18-.44,0-.1-.02-.19-.06-.28-.04-.07-.09-.13-.16-.17-.07-.04-.15-.07-.23-.09-.09-.02-.18-.02-.27-.02h-.87v1.13h.95Zm.06,2.05c.1,0,.2,0,.3-.03,.09-.02,.17-.05,.25-.1,.07-.05,.13-.11,.17-.19,.05-.1,.07-.2,.06-.31,.02-.2-.06-.4-.21-.53-.16-.11-.36-.17-.56-.16h-1.03v1.32h1.01Z"/>
            <path class="cls-4" d="M32.02,29.44v-.89h3.71v.89h-1.32v3.93h-1.06v-3.93h-1.32Z"/>
            <path class="cls-4" d="M14.15,28.48c-.75,1.58-1.36,3.22-1.84,4.9h1.09c.08-.24,.14-.46,.22-.71,.06-.19,.11-.38,.17-.57v-.03h1.7v.03c.15,.45,.28,.86,.4,1.28h1.09c-.47-1.68-1.09-3.32-1.84-4.9h-.98Zm1.08,2.77h-1.16l.02-.06c.13-.43,.33-1.08,.52-1.55l.04-.1,.04,.1c.13,.3,.25,.68,.36,1.04,.06,.18,.11,.35,.16,.51l.02,.06Z"/>
            <path class="cls-4" d="M29.53,28.48c-.75,1.58-1.36,3.22-1.84,4.9h1.09c.08-.24,.14-.46,.22-.71,.06-.19,.11-.38,.17-.57v-.03h1.7v.03c.15,.45,.28,.86,.4,1.28h1.09c-.47-1.68-1.09-3.32-1.84-4.9h-.98Zm1.08,2.77h-1.16l.02-.06c.13-.43,.33-1.08,.52-1.55l.04-.1,.04,.1c.13,.3,.25,.68,.36,1.04,.06,.18,.11,.35,.16,.51l.02,.06Z"/>
          </g>
        </g>
      </g>
    </g>
  </g>
  <g id="Calque_3" data-name="Calque 3">
    <g id="illustration_voeux" data-name="illustration voeux">
      <rect id="SVGID" class="cls-6" x="88.14" y="57.61" width="600" height="207"/>
    </g>
  </g>
</svg>